<svg xmlns="http://www.w3.org/2000/svg" viewBox="0 0 24 24"><path fill="none" stroke="currentColor" stroke-linecap="round" stroke-linejoin="round" stroke-width="1.5" d="M22 22L2 2m15 8c.63.767 1 1.705 1 2.72c0 .444-.071.873-.204 1.28M20 8c1.25 1.23 2 2.795 2 4.5c0 1.416-.517 2.737-1.41 3.848M14 14c0 3.145 0 5.531-.926 5.923c-.926.391-2.016-.72-4.195-2.945c-1.13-1.152-1.773-1.407-3.379-1.407c-1.112 0-2.473.148-3.163-.907C2 14.15 2 13.434 2 12c0-1.433 0-2.15.337-2.664c.69-1.055 2.05-.907 3.163-.907c1.107 0 1.857.01 2.46-.469M14 9.5c0-3.145.026-5.031-.9-5.423c-.77-.326-1.568.39-3.1 1.923" color="currentColor"/></svg>