<svg
  xmlns="http://www.w3.org/2000/svg"
  width="1rem"
  height="1rem"
  viewBox="0 0 24 24"
>
  <path
    fill="currentColor"
    d="M19.404 12.05q-.165 0-.309-.107t-.18-.277q-.144-.668-.399-1.294q-.254-.626-.639-1.205q-.098-.14-.086-.304q.011-.165.14-.294q.183-.177.42-.156q.238.022.372.216q.421.627.72 1.327q.298.7.448 1.498q.067.25-.082.423t-.405.173m-6.354 8.335q0-.166.116-.319q.117-.152.288-.189q.648-.125 1.274-.37t1.205-.63q.14-.098.305-.086q.164.011.293.14q.177.183.156.41q-.021.228-.216.363q-.632.421-1.342.716q-.71.296-1.463.47q-.25.068-.433-.078t-.183-.427m4.88-2.854q-.109-.104-.13-.281t.077-.317q.385-.58.64-1.205q.254-.626.399-1.294q.036-.17.176-.277t.312-.107q.261 0 .407.173q.147.173.08.423q-.156.754-.442 1.463t-.726 1.362q-.134.194-.372.215q-.238.022-.42-.155m-7.472 3.354q-2.782-.57-4.595-2.758T4.05 13.05q0-3.327 2.337-5.663T12.05 5.05h.766l-1.741-1.74q-.16-.16-.16-.354t.166-.36q.16-.16.354-.16t.36.16l2.382 2.389q.13.13.184.267t.053.298t-.053.298t-.184.268l-2.388 2.388q-.16.16-.354.16t-.354-.16t-.16-.354t.16-.354l1.746-1.746h-.777q-2.925 0-4.962 2.038T5.05 13.05q0 2.502 1.58 4.422q1.582 1.92 4.036 2.444q.17.036.277.176t.107.312q0 .255-.17.402t-.42.078"
  />
</svg>
